<?xml version="1.0" standalone="no"?>
<!DOCTYPE svg PUBLIC "-//W3C//DTD SVG 20010904//EN"
 "http://www.w3.org/TR/2001/REC-SVG-20010904/DTD/svg10.dtd">
<svg version="1.0" xmlns="http://www.w3.org/2000/svg"
 width="35.000000pt" height="35.000000pt" viewBox="0 0 35.000000 35.000000"
 preserveAspectRatio="xMidYMid meet">
<metadata>
Created by potrace 1.16, written by Peter Selinger 2001-2019
</metadata>
<g transform="translate(0.000000,35.000000) scale(0.100000,-0.100000)"
fill="#000000" stroke="none">
<path d="M96 326 c-22 -12 -43 -37 -59 -70 -26 -52 -28 -89 -9 -138 9 -21 8
-37 -3 -68 l-15 -42 33 8 c35 9 60 9 128 -1 146 -21 238 168 136 278 -55 59
-143 73 -211 33z m170 -37 c38 -23 54 -57 54 -114 0 -78 -75 -135 -158 -120
-20 3 -51 6 -68 6 -27 1 -31 4 -32 27 -1 15 -4 54 -7 87 -6 67 -1 78 58 118
32 21 46 25 80 21 23 -4 56 -14 73 -25z"/>
</g>
</svg>
