<?xml version="1.0" standalone="no"?>
<!DOCTYPE svg PUBLIC "-//W3C//DTD SVG 20010904//EN"
 "http://www.w3.org/TR/2001/REC-SVG-20010904/DTD/svg10.dtd">
<svg version="1.0" xmlns="http://www.w3.org/2000/svg"
 width="35.000000pt" height="35.000000pt" viewBox="0 0 35.000000 35.000000"
 preserveAspectRatio="xMidYMid meet">
<metadata>
Created by potrace 1.16, written by Peter Selinger 2001-2019
</metadata>
<g transform="translate(0.000000,35.000000) scale(0.100000,-0.100000)"
fill="#000000" stroke="none">
<path d="M120 328 c-11 -12 -23 -39 -26 -60 -5 -28 -11 -38 -25 -38 -15 0 -19
-8 -19 -40 0 -33 3 -40 20 -40 18 0 20 -7 20 -75 l0 -75 45 0 45 0 0 75 c0 69
2 75 20 75 23 0 43 40 34 65 -4 8 -17 15 -30 15 -17 0 -24 6 -24 20 0 15 7 20
25 20 18 0 26 7 31 26 8 32 0 40 -53 48 -35 5 -45 3 -63 -16z"/>
</g>
</svg>
